<svg id="visual" viewBox="0 0 900 600" width="900" height="600" xmlns="http://www.w3.org/2000/svg" xmlns:xlink="http://www.w3.org/1999/xlink" version="1.1"><rect width="900" height="600" fill="#ffffff"></rect><g><g transform="translate(533 160)"><path d="M0 -94.6L55.6 -76.5L90 -29.2L90 29.2L55.6 76.5L0 94.6L-55.6 76.5L-90 29.2L-90 -29.2L-55.6 -76.5Z" fill="#ffdfdf"></path></g><g transform="translate(811 18)"><path d="M0 -85L50 -68.8L80.8 -26.3L80.8 26.3L50 68.8L0 85L-50 68.8L-80.8 26.3L-80.8 -26.3L-50 -68.8Z" fill="#ffdfdf"></path></g><g transform="translate(737 293)"><path d="M0 -58L34.1 -46.9L55.2 -17.9L55.2 17.9L34.1 46.9L0 58L-34.1 46.9L-55.2 17.9L-55.2 -17.9L-34.1 -46.9Z" fill="#ffdfdf"></path></g><g transform="translate(186 595)"><path d="M0 -91L53.5 -73.6L86.5 -28.1L86.5 28.1L53.5 73.6L0 91L-53.5 73.6L-86.5 28.1L-86.5 -28.1L-53.5 -73.6Z" fill="#ffdfdf"></path></g><g transform="translate(346 473)"><path d="M0 -59L34.7 -47.7L56.1 -18.2L56.1 18.2L34.7 47.7L0 59L-34.7 47.7L-56.1 18.2L-56.1 -18.2L-34.7 -47.7Z" fill="#ffdfdf"></path></g><g transform="translate(335 146)"><path d="M0 -30L17.6 -24.3L28.5 -9.3L28.5 9.3L17.6 24.3L0 30L-17.6 24.3L-28.5 9.3L-28.5 -9.3L-17.6 -24.3Z" fill="#ffdfdf"></path></g><g transform="translate(541 402)"><path d="M0 -45L26.5 -36.4L42.8 -13.9L42.8 13.9L26.5 36.4L0 45L-26.5 36.4L-42.8 13.9L-42.8 -13.9L-26.5 -36.4Z" fill="#ffdfdf"></path></g><g transform="translate(831 575)"><path d="M0 -44L25.9 -35.6L41.8 -13.6L41.8 13.6L25.9 35.6L0 44L-25.9 35.6L-41.8 13.6L-41.8 -13.6L-25.9 -35.6Z" fill="#ffdfdf"></path></g><g transform="translate(20 319)"><path d="M0 -27L15.9 -21.8L25.7 -8.3L25.7 8.3L15.9 21.8L0 27L-15.9 21.8L-25.7 8.3L-25.7 -8.3L-15.9 -21.8Z" fill="#ffdfdf"></path></g><g transform="translate(137 117)"><path d="M0 -25L14.7 -20.2L23.8 -7.7L23.8 7.7L14.7 20.2L0 25L-14.7 20.2L-23.8 7.7L-23.8 -7.7L-14.7 -20.2Z" fill="#ffdfdf"></path></g><g transform="translate(632 588)"><path d="M0 -87L51.1 -70.4L82.7 -26.9L82.7 26.9L51.1 70.4L0 87L-51.1 70.4L-82.7 26.9L-82.7 -26.9L-51.1 -70.4Z" fill="#ffdfdf"></path></g><g transform="translate(213 326)"><path d="M0 -59L34.7 -47.7L56.1 -18.2L56.1 18.2L34.7 47.7L0 59L-34.7 47.7L-56.1 18.2L-56.1 -18.2L-34.7 -47.7Z" fill="#ffdfdf"></path></g></g></svg>